# xmcd
#
# Track frame offsets:
#	150
#	17675
#	36299
#	53258
#	68316
#	89404
#	109669
#	129440
#	143007
#	161748
#	178198
#
# Disc length: 2514 seconds
#
# Revision: 0
# Processed by: cddbd v1.5.2PL0 Copyright (c) Steve Scherf et al.
# Submitted via: EasyCDDAExtractor 12.0.0.1
#
DISCID=8509d00b
DTITLE=Carlos Siles - Cuántas veces habré intentado que juegues conmigo
DYEAR=1900
DGENRE=
TTITLE0=Tobogán
TTITLE1=Baila nena
TTITLE2=Supervivientes
TTITLE3=Casi Carolina
TTITLE4=Cenicienta
TTITLE5=Cuántas veces habré intentado juegues conmigo
TTITLE6=Como tu prefieras
TTITLE7=Cuadradorredondo
TTITLE8=Indivisibles
TTITLE9=Canción nº 0
TTITLE10=Canción nº1
EXTD=
EXTT0=
EXTT1=
EXTT2=
EXTT3=
EXTT4=
EXTT5=
EXTT6=
EXTT7=
EXTT8=
EXTT9=
EXTT10=
PLAYORDER=
